<svg height='100px' width='100px'  fill="#ffffff" xmlns="http://www.w3.org/2000/svg" viewBox="0 0 100 100" x="0px" y="0px"><path d="M77.2241667,71.9211111 L55.1752778,49.8719444 L77.2241667,27.8230556 C82.0980556,33.8572222 85.0216667,41.5291667 85.0216667,49.8719444 C85.0216667,58.2147222 82.0980556,65.8866667 77.2241667,71.9211111 L77.2241667,71.9211111 Z M14.7222222,49.8719444 C14.7222222,41.5291667 17.6458333,33.8575 22.5194444,27.8230556 L44.5686111,49.8719444 L22.5194444,71.9208333 C17.6458333,65.8863889 14.7222222,58.2147222 14.7222222,49.8719444 L14.7222222,49.8719444 Z M53.6219444,33.7475 L67.7494444,19.62 C69.2111111,20.4869444 70.605,21.4569444 71.9208333,22.5197222 L53.6219444,40.8186111 L53.6219444,33.7475 Z M53.6219444,66.0513889 L53.6219444,58.9255556 L71.9208333,77.2244444 C70.5947222,78.2955556 69.1891667,79.2722222 67.715,80.1444444 L53.6219444,66.0513889 Z M53.6219444,76.6580556 L60.3805556,83.4166667 C58.2102778,84.0980556 55.9497222,84.5733333 53.6219444,84.8213889 L53.6219444,76.6580556 Z M46.1219444,76.5886111 L46.1219444,84.8213889 C43.7755556,84.5713889 41.4975,84.09 39.3108333,83.3997222 L46.1219444,76.5886111 Z M46.1219444,65.9819444 L31.9852778,80.1186111 C30.5269444,79.2530556 29.1363889,78.2847222 27.8230556,77.2241667 L46.1219444,58.9252778 L46.1219444,65.9819444 Z M46.1219444,33.7475 L46.1219444,40.8188889 L27.8227778,22.5197222 C29.1391667,21.4569444 30.5325,20.4869444 31.9944444,19.62 L46.1219444,33.7475 Z M46.1219444,23.1411111 L39.3219444,16.3408333 C41.505,15.6525 43.7794444,15.1722222 46.1219444,14.9227778 L46.1219444,23.1411111 Z M53.6219444,14.9227778 C55.9644444,15.1722222 58.2388889,15.6525 60.4222222,16.3408333 L53.6219444,23.1408333 L53.6219444,14.9227778 Z M49.8719444,7.22222222 C26.3547222,7.22222222 7.22222222,26.3547222 7.22222222,49.8719444 C7.22222222,73.3891667 26.3547222,92.5216667 49.8719444,92.5216667 C73.3891667,92.5216667 92.5216667,73.3891667 92.5216667,49.8719444 C92.5216667,26.3547222 73.3891667,7.22222222 49.8719444,7.22222222 L49.8719444,7.22222222 Z"></path></svg>